<svg xmlns="http://www.w3.org/2000/svg" viewBox="0 0 800 460" width="100%" height="100%" preserveAspectRatio="xMidYMid meet" style="display:block"><defs>
<pattern id="calcula-tu-precio-de-delivery--dot" width="14" height="14" patternUnits="userSpaceOnUse"><circle cx="2" cy="2" r="1.5" fill="var(--illo-2-soft, #c8d1b4)" opacity=".55"></circle></pattern>
<linearGradient id="calcula-tu-precio-de-delivery--fade" x1="0" y1="0" x2="0" y2="1"><stop offset="0" stop-color="color-mix(in srgb, currentColor 7%, #fffaf5)"></stop><stop offset="1" stop-color="color-mix(in srgb, currentColor 7%, #fffaf5)" stop-opacity="0"></stop></linearGradient>
</defs><g stroke-linecap="round" stroke-linejoin="round"><ellipse cx="420" cy="210" rx="300" ry="185" fill="color-mix(in srgb, currentColor 7%, #fffaf5)"></ellipse><rect x="60" y="70" width="680" height="300" fill="url(#calcula-tu-precio-de-delivery--dot)" opacity=".5"></rect><line x1="60" y1="382" x2="740" y2="382" stroke="var(--illo-2-soft, #c8d1b4)" stroke-width="6"></line><rect x="250" y="150" width="170" height="210" rx="12" fill="#fffaf5" stroke="color-mix(in srgb, currentColor 72%, #241f1c)" stroke-width="6"></rect><rect x="270" y="170" width="130" height="52" rx="10" fill="color-mix(in srgb, currentColor 15%, #fffaf5)"></rect><rect x="272" y="240" width="34" height="28" rx="6" fill="var(--illo-2-soft, #c8d1b4)"></rect><rect x="316" y="240" width="34" height="28" rx="6" fill="var(--illo-2-soft, #c8d1b4)"></rect><rect x="360" y="240" width="34" height="28" rx="6" fill="var(--illo-2-soft, #c8d1b4)"></rect><rect x="272" y="278" width="34" height="28" rx="6" fill="var(--illo-2-soft, #c8d1b4)"></rect><rect x="316" y="278" width="34" height="28" rx="6" fill="var(--illo-2-soft, #c8d1b4)"></rect><rect x="360" y="278" width="34" height="28" rx="6" fill="var(--illo-2-soft, #c8d1b4)"></rect><rect x="272" y="316" width="34" height="28" rx="6" fill="var(--illo-2-soft, #c8d1b4)"></rect><rect x="316" y="316" width="34" height="28" rx="6" fill="var(--illo-2-soft, #c8d1b4)"></rect><rect x="360" y="316" width="34" height="28" rx="6" fill="var(--illo-2-soft, #c8d1b4)"></rect><ellipse cx="335" cy="364" rx="105" ry="19.95" fill="#2b2724" opacity="0.13"></ellipse><path d="M492 220 H640 a12 12 0 0 1 12 12 V282 a12 12 0 0 1 -12 12 H492 L470 257 Z" fill="color-mix(in srgb, currentColor 32%, #fffaf5)" stroke="color-mix(in srgb, currentColor 72%, #241f1c)" stroke-width="6"></path><circle cx="500" cy="257" r="6" fill="#fffaf5"></circle></g></svg>