<svg xmlns="http://www.w3.org/2000/svg" viewBox="0 0 800 460" width="100%" height="100%" preserveAspectRatio="xMidYMid meet" style="display:block"><defs>
<pattern id="date-de-alta-en-ubereats-y-didi-food--dot" width="14" height="14" patternUnits="userSpaceOnUse"><circle cx="2" cy="2" r="1.5" fill="var(--illo-2-soft, #c8d1b4)" opacity=".55"></circle></pattern>
<linearGradient id="date-de-alta-en-ubereats-y-didi-food--fade" x1="0" y1="0" x2="0" y2="1"><stop offset="0" stop-color="color-mix(in srgb, currentColor 7%, #fffaf5)"></stop><stop offset="1" stop-color="color-mix(in srgb, currentColor 7%, #fffaf5)" stop-opacity="0"></stop></linearGradient>
</defs><g stroke-linecap="round" stroke-linejoin="round"><ellipse cx="420" cy="210" rx="300" ry="185" fill="color-mix(in srgb, currentColor 7%, #fffaf5)"></ellipse><rect x="60" y="70" width="680" height="300" fill="url(#date-de-alta-en-ubereats-y-didi-food--dot)" opacity=".5"></rect><line x1="60" y1="382" x2="740" y2="382" stroke="var(--illo-2-soft, #c8d1b4)" stroke-width="6"></line><ellipse cx="280" cy="384" rx="86.8" ry="16.49" fill="#2b2724" opacity="0.13"></ellipse><rect x="210" y="160" width="140" height="220" rx="22" fill="#fffaf5" stroke="color-mix(in srgb, currentColor 72%, #241f1c)" stroke-width="7"></rect><rect x="220" y="182" width="120" height="180" rx="12" fill="color-mix(in srgb, currentColor 15%, #fffaf5)"></rect><line x1="266" y1="172" x2="294" y2="172" stroke="color-mix(in srgb, currentColor 72%, #241f1c)" stroke-width="5"></line><ellipse cx="500" cy="384" rx="86.8" ry="16.49" fill="#2b2724" opacity="0.13"></ellipse><rect x="430" y="160" width="140" height="220" rx="22" fill="#fffaf5" stroke="color-mix(in srgb, currentColor 72%, #241f1c)" stroke-width="7"></rect><rect x="440" y="182" width="120" height="180" rx="12" fill="color-mix(in srgb, currentColor 15%, #fffaf5)"></rect><line x1="486" y1="172" x2="514" y2="172" stroke="color-mix(in srgb, currentColor 72%, #241f1c)" stroke-width="5"></line><circle cx="390" cy="270" r="30" fill="var(--illo-2, #7a8a5e)"></circle><path d="M376.8 270 l10.200000000000001 10.799999999999999 l18 -19.8" fill="none" stroke="#fffaf5" stroke-width="6.6"></path></g></svg>