<svg xmlns="http://www.w3.org/2000/svg" viewBox="0 0 800 460" width="100%" height="100%" preserveAspectRatio="xMidYMid meet" style="display:block"><defs>
<pattern id="define-el-puesto-antes-de-buscar--dot" width="14" height="14" patternUnits="userSpaceOnUse"><circle cx="2" cy="2" r="1.5" fill="var(--illo-2-soft, #c8d1b4)" opacity=".55"></circle></pattern>
<linearGradient id="define-el-puesto-antes-de-buscar--fade" x1="0" y1="0" x2="0" y2="1"><stop offset="0" stop-color="color-mix(in srgb, currentColor 7%, #fffaf5)"></stop><stop offset="1" stop-color="color-mix(in srgb, currentColor 7%, #fffaf5)" stop-opacity="0"></stop></linearGradient>
</defs><g stroke-linecap="round" stroke-linejoin="round"><ellipse cx="420" cy="210" rx="300" ry="185" fill="color-mix(in srgb, currentColor 7%, #fffaf5)"></ellipse><rect x="60" y="70" width="680" height="300" fill="url(#define-el-puesto-antes-de-buscar--dot)" opacity=".5"></rect><line x1="60" y1="382" x2="740" y2="382" stroke="var(--illo-2-soft, #c8d1b4)" stroke-width="6"></line><rect x="300" y="130" width="200" height="230" rx="12" fill="#fffaf5" stroke="color-mix(in srgb, currentColor 72%, #241f1c)" stroke-width="6"></rect><line x1="316" y1="156" x2="484" y2="156" stroke="var(--illo-2-soft, #c8d1b4)" stroke-width="7"></line><line x1="316" y1="203.5" x2="454" y2="203.5" stroke="var(--illo-2-soft, #c8d1b4)" stroke-width="7"></line><line x1="316" y1="251" x2="484" y2="251" stroke="var(--illo-2-soft, #c8d1b4)" stroke-width="7"></line><line x1="316" y1="298.5" x2="454" y2="298.5" stroke="var(--illo-2-soft, #c8d1b4)" stroke-width="7"></line><line x1="316" y1="346" x2="484" y2="346" stroke="var(--illo-2-soft, #c8d1b4)" stroke-width="7"></line><ellipse cx="400" cy="366" rx="110" ry="20.90" fill="#2b2724" opacity="0.13"></ellipse><line x1="560" y1="330" x2="640" y2="250" stroke="color-mix(in srgb, currentColor 72%, #241f1c)" stroke-width="11"></line><path d="M640 250 l26 -26 l18 18 l-26 26 Z" fill="currentColor" stroke="color-mix(in srgb, currentColor 72%, #241f1c)" stroke-width="6"></path></g></svg>