<svg xmlns="http://www.w3.org/2000/svg" viewBox="0 0 800 420" width="800" height="420"><rect width="800" height="420" fill="#fdf1e6"></rect><g stroke-linecap="round" stroke-linejoin="round"><line x1="60" y1="358" x2="740" y2="358" stroke="#c8d1b4" stroke-width="6"></line><circle cx="170" cy="230.5" r="27.2" fill="#e07a2b"></circle><path d="M124.1 358 v-54.4 a45.9 45.9 0 0 1 91.8 0 v54.4 Z" fill="#e07a2b"></path><rect x="320" y="90" width="380" height="250" rx="18" fill="#fffaf5" stroke="#9e4e18" stroke-width="7"></rect><line x1="510" y1="90" x2="510" y2="340" stroke="#c8d1b4" stroke-width="5"></line><rect x="350" y="120" width="120" height="22" rx="11" fill="#e07a2b"></rect><line x1="350" y1="165" x2="470" y2="165" stroke="#f4c191" stroke-width="9"></line><line x1="350" y1="199" x2="470" y2="199" stroke="#f4c191" stroke-width="9"></line><line x1="350" y1="233" x2="470" y2="233" stroke="#f4c191" stroke-width="9"></line><rect x="540" y="120" width="120" height="22" rx="11" fill="#f4c191"></rect><line x1="540" y1="165" x2="660" y2="165" stroke="#c8d1b4" stroke-width="9"></line><line x1="540" y1="199" x2="660" y2="199" stroke="#c8d1b4" stroke-width="9"></line><line x1="540" y1="233" x2="660" y2="233" stroke="#c8d1b4" stroke-width="9"></line><path d="M680.0 93.0 L684.5 103.8 L696.2 104.7 L687.3 112.4 L690.0 123.8 L680.0 117.7 L670.0 123.8 L672.7 112.4 L663.8 104.7 L675.5 103.8 Z" fill="#e07a2b"></path></g></svg>