<svg xmlns="http://www.w3.org/2000/svg" viewBox="0 0 800 460" width="100%" height="100%" preserveAspectRatio="xMidYMid meet" style="display:block"><defs>
<pattern id="evalua-a-los-30-dias--dot" width="14" height="14" patternUnits="userSpaceOnUse"><circle cx="2" cy="2" r="1.5" fill="var(--illo-2-soft, #c8d1b4)" opacity=".55"></circle></pattern>
<linearGradient id="evalua-a-los-30-dias--fade" x1="0" y1="0" x2="0" y2="1"><stop offset="0" stop-color="color-mix(in srgb, currentColor 7%, #fffaf5)"></stop><stop offset="1" stop-color="color-mix(in srgb, currentColor 7%, #fffaf5)" stop-opacity="0"></stop></linearGradient>
</defs><g stroke-linecap="round" stroke-linejoin="round"><ellipse cx="420" cy="210" rx="300" ry="185" fill="color-mix(in srgb, currentColor 7%, #fffaf5)"></ellipse><rect x="60" y="70" width="680" height="300" fill="url(#evalua-a-los-30-dias--dot)" opacity=".5"></rect><line x1="60" y1="382" x2="740" y2="382" stroke="var(--illo-2-soft, #c8d1b4)" stroke-width="6"></line><rect x="270" y="140" width="210" height="210" rx="14" fill="#fffaf5" stroke="color-mix(in srgb, currentColor 72%, #241f1c)" stroke-width="6"></rect><path d="M270 174 h210" stroke="color-mix(in srgb, currentColor 72%, #241f1c)" stroke-width="6"></path><line x1="294" y1="128" x2="294" y2="152" stroke="color-mix(in srgb, currentColor 72%, #241f1c)" stroke-width="7"></line><line x1="456" y1="128" x2="456" y2="152" stroke="color-mix(in srgb, currentColor 72%, #241f1c)" stroke-width="7"></line><rect x="288" y="188" width="33.5" height="39.333333333333336" rx="5" fill="var(--illo-2-soft, #c8d1b4)" opacity=".6"></rect><rect x="331.5" y="188" width="33.5" height="39.333333333333336" rx="5" fill="var(--illo-2-soft, #c8d1b4)" opacity=".6"></rect><rect x="375" y="188" width="33.5" height="39.333333333333336" rx="5" fill="var(--illo-2-soft, #c8d1b4)" opacity=".6"></rect><rect x="418.5" y="188" width="33.5" height="39.333333333333336" rx="5" fill="var(--illo-2-soft, #c8d1b4)" opacity=".6"></rect><rect x="288" y="237.33333333333334" width="33.5" height="39.333333333333336" rx="5" fill="var(--illo-2-soft, #c8d1b4)" opacity=".6"></rect><rect x="331.5" y="237.33333333333334" width="33.5" height="39.333333333333336" rx="5" fill="var(--illo-2-soft, #c8d1b4)" opacity=".6"></rect><rect x="375" y="237.33333333333334" width="33.5" height="39.333333333333336" rx="5" fill="var(--illo-2-soft, #c8d1b4)" opacity=".6"></rect><rect x="418.5" y="237.33333333333334" width="33.5" height="39.333333333333336" rx="5" fill="var(--illo-2-soft, #c8d1b4)" opacity=".6"></rect><rect x="288" y="286.6666666666667" width="33.5" height="39.333333333333336" rx="5" fill="var(--illo-2-soft, #c8d1b4)" opacity=".6"></rect><rect x="331.5" y="286.6666666666667" width="33.5" height="39.333333333333336" rx="5" fill="var(--illo-2-soft, #c8d1b4)" opacity=".6"></rect><rect x="375" y="286.6666666666667" width="33.5" height="39.333333333333336" rx="5" fill="var(--illo-2-soft, #c8d1b4)" opacity=".6"></rect><rect x="418.5" y="286.6666666666667" width="33.5" height="39.333333333333336" rx="5" fill="var(--illo-2-soft, #c8d1b4)" opacity=".6"></rect><ellipse cx="375" cy="356" rx="116" ry="22.04" fill="#2b2724" opacity="0.13"></ellipse><circle cx="590" cy="230" r="42" fill="var(--illo-2, #7a8a5e)"></circle><path d="M571.52 230 l14.280000000000001 15.12 l25.2 -27.720000000000002" fill="none" stroke="#fffaf5" stroke-width="9.24"></path><circle cx="590" cy="330" r="42" fill="color-mix(in srgb, currentColor 72%, #241f1c)"></circle><path d="M574.88 314.88 l30.24 30.24 M605.12 314.88 l-30.24 30.24" stroke="#fffaf5" stroke-width="8.4"></path></g></svg>