<svg xmlns="http://www.w3.org/2000/svg" viewBox="0 0 800 420" width="800" height="420"><rect width="800" height="420" fill="#fdf1e6"></rect><g stroke-linecap="round" stroke-linejoin="round"><line x1="60" y1="358" x2="740" y2="358" stroke="#c8d1b4" stroke-width="6"></line><circle cx="180" cy="230.5" r="27.2" fill="#e07a2b"></circle><path d="M134.1 358 v-54.4 a45.9 45.9 0 0 1 91.8 0 v54.4 Z" fill="#e07a2b"></path><line x1="224.2" y1="269.6" x2="310" y2="229.60000000000002" stroke="#e07a2b" stroke-width="12.75"></line><path d="M330 210 l60 -60 h290 a18 18 0 0 1 18 18 v84 a18 18 0 0 1 -18 18 h-290 Z" fill="#f4c191" stroke="#9e4e18" stroke-width="6"></path><circle cx="414" cy="210" r="11" fill="#fffaf5"></circle><text x="500" y="240" text-anchor="middle" font-family="Figtree,system-ui,sans-serif" font-size="72" font-weight="700" fill="#e07a2b">$</text><path d="M700 300 l0 -140 m-30 30 l30 -30 l30 30" fill="none" stroke="#e07a2b" stroke-width="11"></path></g></svg>