<svg xmlns="http://www.w3.org/2000/svg" viewBox="0 0 800 460" width="100%" height="100%" preserveAspectRatio="xMidYMid meet" style="display:block"><defs>
<pattern id="publica-en-los-grupos-de-bolsa-de-trabajo--dot" width="14" height="14" patternUnits="userSpaceOnUse"><circle cx="2" cy="2" r="1.5" fill="var(--illo-2-soft, #c8d1b4)" opacity=".55"></circle></pattern>
<linearGradient id="publica-en-los-grupos-de-bolsa-de-trabajo--fade" x1="0" y1="0" x2="0" y2="1"><stop offset="0" stop-color="color-mix(in srgb, currentColor 7%, #fffaf5)"></stop><stop offset="1" stop-color="color-mix(in srgb, currentColor 7%, #fffaf5)" stop-opacity="0"></stop></linearGradient>
</defs><g stroke-linecap="round" stroke-linejoin="round"><ellipse cx="420" cy="210" rx="300" ry="185" fill="color-mix(in srgb, currentColor 7%, #fffaf5)"></ellipse><rect x="60" y="70" width="680" height="300" fill="url(#publica-en-los-grupos-de-bolsa-de-trabajo--dot)" opacity=".5"></rect><line x1="60" y1="382" x2="740" y2="382" stroke="var(--illo-2-soft, #c8d1b4)" stroke-width="6"></line><ellipse cx="380" cy="394" rx="99.2" ry="18.85" fill="#2b2724" opacity="0.13"></ellipse><rect x="300" y="140" width="160" height="250" rx="22" fill="#fffaf5" stroke="color-mix(in srgb, currentColor 72%, #241f1c)" stroke-width="7"></rect><rect x="310" y="162" width="140" height="210" rx="12" fill="color-mix(in srgb, currentColor 15%, #fffaf5)"></rect><line x1="366" y1="152" x2="394" y2="152" stroke="color-mix(in srgb, currentColor 72%, #241f1c)" stroke-width="5"></line><path d="M338 180 H422 a18 18 0 0 1 18 18 V232 a18 18 0 0 1 -18 18 H372 l-22 26 v-26 H338 a18 18 0 0 1 -18 -18 V198 a18 18 0 0 1 18 -18 Z" fill="color-mix(in srgb, currentColor 15%, #fffaf5)" stroke="color-mix(in srgb, currentColor 72%, #241f1c)" stroke-width="6"></path><path d="M538 170 H652 a18 18 0 0 1 18 18 V238 a18 18 0 0 1 -18 18 H572 l-22 26 v-26 H538 a18 18 0 0 1 -18 -18 V188 a18 18 0 0 1 18 -18 Z" fill="#fffaf5" stroke="color-mix(in srgb, currentColor 72%, #241f1c)" stroke-width="6"></path><path d="M558 290 H642 a18 18 0 0 1 18 18 V342 a18 18 0 0 1 -18 18 H592 l-22 26 v-26 H558 a18 18 0 0 1 -18 -18 V308 a18 18 0 0 1 18 -18 Z" fill="color-mix(in srgb, currentColor 15%, #fffaf5)" stroke="color-mix(in srgb, currentColor 72%, #241f1c)" stroke-width="6"></path></g></svg>