<svg xmlns="http://www.w3.org/2000/svg" viewBox="0 0 800 420" width="800" height="420"><rect width="800" height="420" fill="#fdf1e6"></rect><g stroke-linecap="round" stroke-linejoin="round"><line x1="60" y1="358" x2="740" y2="358" stroke="#c8d1b4" stroke-width="6"></line><circle cx="170" cy="230.5" r="27.2" fill="#7a8a5e"></circle><path d="M124.1 358 v-54.4 a45.9 45.9 0 0 1 91.8 0 v54.4 Z" fill="#7a8a5e"></path><line x1="300" y1="320" x2="740" y2="320" stroke="#9e4e18" stroke-width="6"></line><line x1="300" y1="90" x2="300" y2="320" stroke="#9e4e18" stroke-width="6"></line><path d="M340 270 L420 240 L500 255 L580 190 L660 205 L720 130" fill="none" stroke="#e07a2b" stroke-width="9"></path><circle cx="340" cy="270" r="11" fill="#fffaf5" stroke="#e07a2b" stroke-width="6"></circle><circle cx="420" cy="240" r="11" fill="#fffaf5" stroke="#e07a2b" stroke-width="6"></circle><circle cx="500" cy="255" r="11" fill="#fffaf5" stroke="#e07a2b" stroke-width="6"></circle><circle cx="580" cy="190" r="11" fill="#fffaf5" stroke="#e07a2b" stroke-width="6"></circle><circle cx="660" cy="205" r="11" fill="#fffaf5" stroke="#e07a2b" stroke-width="6"></circle><circle cx="720" cy="130" r="11" fill="#fffaf5" stroke="#e07a2b" stroke-width="6"></circle></g></svg>