<svg xmlns="http://www.w3.org/2000/svg" viewBox="0 0 800 420" width="800" height="420"><rect width="800" height="420" fill="#fdf1e6"></rect><g stroke-linecap="round" stroke-linejoin="round"><line x1="60" y1="358" x2="740" y2="358" stroke="#c8d1b4" stroke-width="6"></line><circle cx="180" cy="230.5" r="27.2" fill="#7a8a5e"></circle><path d="M134.1 358 v-54.4 a45.9 45.9 0 0 1 91.8 0 v54.4 Z" fill="#7a8a5e"></path><line x1="224.2" y1="269.6" x2="290" y2="229.60000000000002" stroke="#7a8a5e" stroke-width="12.75"></line><rect x="330" y="90" width="112" height="72" rx="10" fill="#e07a2b"></rect><circle cx="356" cy="112" r="10" fill="#fffaf5"></circle><path d="M340 152 l26 -26 l22 18 l20 -20 l16 16 v12 Z" fill="#fffaf5"></path><rect x="460" y="90" width="112" height="72" rx="10" fill="#e07a2b"></rect><circle cx="486" cy="112" r="10" fill="#fffaf5"></circle><path d="M470 152 l26 -26 l22 18 l20 -20 l16 16 v12 Z" fill="#fffaf5"></path><rect x="590" y="90" width="112" height="72" rx="10" fill="#e07a2b"></rect><circle cx="616" cy="112" r="10" fill="#fffaf5"></circle><path d="M600 152 l26 -26 l22 18 l20 -20 l16 16 v12 Z" fill="#fffaf5"></path><rect x="330" y="178" width="112" height="72" rx="10" fill="#f4c191"></rect><circle cx="356" cy="200" r="10" fill="#fffaf5"></circle><path d="M340 240 l26 -26 l22 18 l20 -20 l16 16 v12 Z" fill="#fffaf5"></path><rect x="460" y="178" width="112" height="72" rx="10" fill="#f4c191"></rect><circle cx="486" cy="200" r="10" fill="#fffaf5"></circle><path d="M470 240 l26 -26 l22 18 l20 -20 l16 16 v12 Z" fill="#fffaf5"></path><rect x="590" y="178" width="112" height="72" rx="10" fill="#f4c191"></rect><circle cx="616" cy="200" r="10" fill="#fffaf5"></circle><path d="M600 240 l26 -26 l22 18 l20 -20 l16 16 v12 Z" fill="#fffaf5"></path><rect x="330" y="266" width="112" height="72" rx="10" fill="#7a8a5e"></rect><circle cx="356" cy="288" r="10" fill="#fffaf5"></circle><path d="M340 328 l26 -26 l22 18 l20 -20 l16 16 v12 Z" fill="#fffaf5"></path><rect x="460" y="266" width="112" height="72" rx="10" fill="#7a8a5e"></rect><circle cx="486" cy="288" r="10" fill="#fffaf5"></circle><path d="M470 328 l26 -26 l22 18 l20 -20 l16 16 v12 Z" fill="#fffaf5"></path><rect x="590" y="266" width="112" height="72" rx="10" fill="#7a8a5e"></rect><circle cx="616" cy="288" r="10" fill="#fffaf5"></circle><path d="M600 328 l26 -26 l22 18 l20 -20 l16 16 v12 Z" fill="#fffaf5"></path></g></svg>