<svg xmlns="http://www.w3.org/2000/svg" viewBox="0 0 800 460" width="100%" height="100%" preserveAspectRatio="xMidYMid meet" style="display:block"><defs>
<pattern id="verifica-que-viva-a-5-km--dot" width="14" height="14" patternUnits="userSpaceOnUse"><circle cx="2" cy="2" r="1.5" fill="var(--illo-2-soft, #c8d1b4)" opacity=".55"></circle></pattern>
<linearGradient id="verifica-que-viva-a-5-km--fade" x1="0" y1="0" x2="0" y2="1"><stop offset="0" stop-color="color-mix(in srgb, currentColor 7%, #fffaf5)"></stop><stop offset="1" stop-color="color-mix(in srgb, currentColor 7%, #fffaf5)" stop-opacity="0"></stop></linearGradient>
</defs><g stroke-linecap="round" stroke-linejoin="round"><ellipse cx="420" cy="210" rx="300" ry="185" fill="color-mix(in srgb, currentColor 7%, #fffaf5)"></ellipse><rect x="60" y="70" width="680" height="300" fill="url(#verifica-que-viva-a-5-km--dot)" opacity=".5"></rect><line x1="60" y1="382" x2="740" y2="382" stroke="var(--illo-2-soft, #c8d1b4)" stroke-width="6"></line><circle cx="440" cy="250" r="126" fill="none" stroke="var(--illo-2-soft, #c8d1b4)" stroke-width="7" stroke-dasharray="18 16"></circle><circle cx="440" cy="250" r="76" fill="color-mix(in srgb, currentColor 7%, #fffaf5)"></circle><path d="M440 312 C380 252 386 200 440 200 C494 200 500 252 440 312 Z" fill="currentColor"></path><circle cx="440" cy="236" r="16.8" fill="#fffaf5"></circle><ellipse cx="440" cy="364" rx="50" ry="9.50" fill="#2b2724" opacity="0.13"></ellipse><ellipse cx="640" cy="385" rx="35.9136" ry="6.82" fill="#2b2724" opacity="0.13"></ellipse><line x1="629.4736" y1="354.7552" x2="628.2352" y2="382" stroke="var(--illo-2, #7a8a5e)" stroke-width="10.526399999999999"></line><line x1="650.5264" y1="354.7552" x2="651.7648" y2="382" stroke="var(--illo-2, #7a8a5e)" stroke-width="10.526399999999999"></line><path d="M615.232 359.536 v-32.1984 a24.767999999999997 24.767999999999997 0 0 1 49.535999999999994 0 v32.1984 Z" fill="var(--illo-2, #7a8a5e)"></path><line x1="640" y1="297.1696" x2="640" y2="310.1728" stroke="var(--illo-2, #7a8a5e)" stroke-width="9.288"></line><circle cx="640" cy="284.1664" r="18.576" fill="var(--illo-2, #7a8a5e)"></circle><line x1="661.0528" y1="312.6496" x2="566" y2="268" stroke="var(--illo-2, #7a8a5e)" stroke-width="9.288"></line><line x1="618.9472" y1="312.6496" x2="615.232" y2="351.04" stroke="var(--illo-2, #7a8a5e)" stroke-width="9.288"></line></g></svg>